<svg enable-background="new 0 0 497 497" height="512" viewBox="0 0 497 497" width="512"
    xmlns="http://www.w3.org/2000/svg">
    <g>
        <g>
            <path
                d="m454.574 0c-18.162 0-36.034.713-53.536 2.192-188.499 15.923-334.038 120.868-334.038 385.382v42.426h42.426c113.463 0 197.561-26.737 257.872-72.161 93.345-70.304 129.702-185.378 129.702-315.413 0-23.431-18.995-42.426-42.426-42.426z"
                fill="#5fd9b3" />
            <path
                d="m401.038 2.192c-188.499 15.923-334.038 120.868-334.038 385.382l-58.213 58.213c-11.716 11.716-11.716 30.711 0 42.427 5.857 5.857 13.535 8.786 21.213 8.786s15.355-2.929 21.213-8.787l58.213-58.213c113.463 0 197.561-26.737 257.872-72.161-17.174 1.424-35.118 2.161-53.872 2.161-23.431 0-42.426-18.995-42.426-42.426 0-155.49 50.293-255.839 130.038-315.382z"
                fill="#00ce8e" />
        </g>
        <g fill="#009d6b">
            <path
                d="m392.838 292.154c-40.7-28.673-90.616-41.864-139.868-37.517l30.208-30.209c2.929-2.929 2.929-7.678 0-10.606-2.93-2.929-7.678-2.929-10.607 0l-30.187 30.187c4.337-49.238-8.854-99.139-37.521-139.828-2.384-3.386-7.063-4.197-10.45-1.812-3.387 2.386-4.197 7.064-1.812 10.451 30.297 43.004 41.981 97.088 32.236 148.735l-66.241 66.242c2.499-38.689-8.267-77.637-30.777-109.587-2.384-3.386-7.063-4.197-10.45-1.812-3.387 2.386-4.197 7.064-1.812 10.451 24.08 34.181 33.418 77.137 25.788 118.199l-43.485 43.485c-2.929 2.929-2.929 7.678 0 10.606 1.465 1.464 3.385 2.197 5.304 2.197s3.839-.732 5.304-2.197l43.488-43.488c41.067-7.628 84.018 1.711 118.197 25.791 1.313.925 2.82 1.369 4.313 1.369 2.357 0 4.678-1.108 6.138-3.181 2.386-3.386 1.575-8.065-1.812-10.451-31.951-22.51-70.893-33.276-109.587-30.777l66.216-66.216c51.66-9.76 105.763 1.924 148.779 32.229 1.313.925 2.82 1.369 4.313 1.369 2.357 0 4.678-1.108 6.138-3.181 2.384-3.385 1.573-8.063-1.813-10.449z" />
            <path
                d="m469.009 89.179c-11.016-7.761-23.933-12.322-37.195-13.386l26.654-26.654c2.929-2.929 2.929-7.678 0-10.606s-7.677-2.93-10.607 0l-26.653 26.653c-1.065-13.264-5.626-26.18-13.387-37.195-2.384-3.385-7.063-4.198-10.45-1.812s-4.197 7.064-1.812 10.451c8.991 12.764 12.619 28.713 10.121 44.084l-60.384 60.384c1.661-33.628-7.915-67.34-27.476-95.106-2.384-3.385-7.063-4.197-10.45-1.812-3.387 2.386-4.197 7.064-1.812 10.451 21.089 29.937 29.301 67.54 22.693 103.512l-12.094 12.094c-2.929 2.929-2.929 7.678 0 10.606 1.465 1.464 3.384 2.197 5.304 2.197 1.919 0 3.839-.732 5.304-2.197l12.094-12.094c35.971-6.608 73.575 1.604 103.511 22.694 1.313.925 2.82 1.369 4.313 1.369 2.357 0 4.678-1.108 6.138-3.181 2.386-3.386 1.575-8.065-1.812-10.451-27.767-19.561-61.478-29.138-95.105-27.476l60.384-60.384c15.373-2.499 31.32 1.13 44.083 10.122 1.313.925 2.82 1.369 4.313 1.369 2.357 0 4.678-1.108 6.138-3.181 2.384-3.386 1.573-8.065-1.813-10.451z" />
        </g>
        <g fill="#313d40">
            <path
                d="m263.089 135.006-8.485 8.485c-2.929 2.929-2.929 7.678 0 10.607s7.677 2.929 10.606 0l8.485-8.485c2.929-2.929 2.929-7.678 0-10.607-2.928-2.929-7.676-2.929-10.606 0z" />
            <path
                d="m362.012 223.322c-2.929-2.929-7.677-2.929-10.607 0l-8.485 8.485c-2.929 2.929-2.929 7.678 0 10.607s7.677 2.929 10.607 0l8.485-8.485c2.929-2.93 2.929-7.678 0-10.607z" />
            <path
                d="m315.446 196.859c-4.145.285-8.201-1.231-11.129-4.159s-4.444-6.984-4.159-11.129c.283-4.132-2.837-7.712-6.969-7.996-4.132-.283-7.712 2.836-7.996 6.969-.581 8.471 2.523 16.769 8.517 22.763 5.995 5.995 14.292 9.099 22.763 8.517 4.133-.284 7.252-3.864 6.969-7.996-.283-4.133-3.863-7.253-7.996-6.969z" />
        </g>
    </g>
</svg>